<svg xmlns="http://www.w3.org/2000/svg" width="256" height="256" viewBox="0 0 100 100"><rect width="100" height="100" rx="50" fill="#7d6ee7"></rect><path fill="#fff" d="M23.57 66.79L23.57 66.79Q28.16 66.79 30.29 65.01Q32.42 63.23 32.42 60.55L32.42 60.55Q32.42 58.10 30.76 56.64Q29.10 55.17 25.71 54.15L25.71 54.15L20.65 52.57Q17.65 51.62 15.20 50.43Q12.75 49.25 11.01 47.63Q9.28 46.01 8.33 43.84Q7.38 41.67 7.38 38.66L7.38 38.66Q7.38 32.26 12.20 28.51Q17.02 24.76 25.39 24.76L25.39 24.76Q28.71 24.76 31.51 25.27Q34.32 25.79 36.37 26.70Q38.43 27.60 39.57 28.95Q40.72 30.29 40.72 31.95L40.72 31.95Q40.72 33.53 39.97 34.67Q39.22 35.82 38.11 36.53L38.11 36.53Q36.21 35.19 33.09 34.20Q29.97 33.21 26.26 33.21L26.26 33.21Q22.15 33.21 20.02 34.67Q17.89 36.14 17.89 38.66L17.89 38.66Q17.89 40.72 19.35 41.82Q20.81 42.93 23.97 43.96L23.97 43.96L28.47 45.38Q35.35 47.43 39.14 50.99Q42.93 54.54 42.93 60.63L42.93 60.63Q42.93 63.86 41.67 66.55Q40.40 69.24 37.99 71.17Q35.58 73.11 31.99 74.17Q28.39 75.24 23.81 75.24L23.81 75.24Q20.18 75.24 17.14 74.61Q14.09 73.98 11.88 72.91Q9.67 71.84 8.45 70.38Q7.22 68.92 7.22 67.18L7.22 67.18Q7.22 65.37 8.29 64.06Q9.35 62.76 10.78 62.13L10.78 62.13Q12.75 63.86 15.99 65.33Q19.23 66.79 23.57 66.79ZM92.78 50.67L92.78 67.34Q92.78 69.32 91.95 70.38Q91.12 71.45 89.30 72.40L89.30 72.40Q88.28 73.03 86.73 73.54Q85.19 74.06 83.34 74.41Q81.48 74.77 79.51 75.00Q77.53 75.24 75.56 75.24L75.56 75.24Q69.95 75.24 65.17 73.78Q60.39 72.32 56.87 69.24Q53.36 66.16 51.38 61.42Q49.41 56.68 49.41 50.12L49.41 50.12Q49.41 43.88 51.42 39.10Q53.44 34.32 56.95 31.16Q60.47 28.00 65.13 26.38Q69.79 24.76 75.16 24.76L75.16 24.76Q78.72 24.76 81.60 25.35Q84.48 25.94 86.58 26.93Q88.67 27.92 89.78 29.30Q90.88 30.68 90.88 32.19L90.88 32.19Q90.88 33.77 90.01 34.95Q89.14 36.14 88.04 36.77L88.04 36.77Q85.98 35.42 83.06 34.28Q80.14 33.13 75.87 33.13L75.87 33.13Q72.40 33.13 69.47 34.28Q66.55 35.42 64.46 37.56Q62.36 39.69 61.18 42.85Q59.99 46.01 59.99 50.04L59.99 50.04Q59.99 54.38 61.18 57.54Q62.36 60.70 64.46 62.80Q66.55 64.89 69.43 65.88Q72.32 66.87 75.71 66.87L75.71 66.87Q78.01 66.87 79.90 66.47Q81.80 66.08 82.82 65.52L82.82 65.52L82.82 54.54L72.71 54.54Q72.32 53.91 72.00 52.88Q71.69 51.86 71.69 50.59L71.69 50.59Q71.69 48.54 72.67 47.51Q73.66 46.48 75.24 46.48L75.24 46.48L88.51 46.48Q90.49 46.48 91.63 47.59Q92.78 48.70 92.78 50.67L92.78 50.67Z"></path></svg>